<mxfile host="app.diagrams.net" modified="2023-07-24T06:18:53.848Z" agent="Mozilla/5.0 (Macintosh; Intel Mac OS X 10_15_7) AppleWebKit/605.1.15 (KHTML, like Gecko) Version/15.4 Safari/605.1.15" version="21.6.5" etag="068OyTh3NzxkBpxFFbFS" type="github">
  <diagram name="第 1 页" id="Imz-HQs0BJNV58H_vMK3">
    <mxGraphModel>
      <root>
        <mxCell id="0" />
        <mxCell id="1" parent="0" />
      </root>
    </mxGraphModel>
  </diagram>
</mxfile>
